<svg width="638" height="69" viewBox="0 0 638 69" fill="none" xmlns="http://www.w3.org/2000/svg">
<path d="M7.72656 48.4805H31.9844V54H0.941406V2.8125H7.72656V48.4805ZM36.9414 34.6289C36.9414 30.9023 37.668 27.5508 39.1211 24.5742C40.5977 21.5977 42.6367 19.3008 45.2383 17.6836C47.8633 16.0664 50.8516 15.2578 54.2031 15.2578C59.3828 15.2578 63.5664 17.0508 66.7539 20.6367C69.9648 24.2227 71.5703 28.9922 71.5703 34.9453V35.4023C71.5703 39.1055 70.8555 42.4336 69.4258 45.3867C68.0195 48.3164 65.9922 50.6016 63.3438 52.2422C60.7188 53.8828 57.6953 54.7031 54.2734 54.7031C49.1172 54.7031 44.9336 52.9102 41.7227 49.3242C38.5352 45.7383 36.9414 40.9922 36.9414 35.0859V34.6289ZM43.4805 35.4023C43.4805 39.6211 44.4531 43.0078 46.3984 45.5625C48.3672 48.1172 50.9922 49.3945 54.2734 49.3945C57.5781 49.3945 60.2031 48.1055 62.1484 45.5273C64.0938 42.9258 65.0664 39.293 65.0664 34.6289C65.0664 30.457 64.0703 27.082 62.0781 24.5039C60.1094 21.9023 57.4844 20.6016 54.2031 20.6016C50.9922 20.6016 48.4023 21.8789 46.4336 24.4336C44.4648 26.9883 43.4805 30.6445 43.4805 35.4023ZM94.9844 49.3945C97.3047 49.3945 99.332 48.6914 101.066 47.2852C102.801 45.8789 103.762 44.1211 103.949 42.0117H110.102C109.984 44.1914 109.234 46.2656 107.852 48.2344C106.469 50.2031 104.617 51.7734 102.297 52.9453C100 54.1172 97.5625 54.7031 94.9844 54.7031C89.8047 54.7031 85.6797 52.9805 82.6094 49.5352C79.5625 46.0664 78.0391 41.332 78.0391 35.332V34.2422C78.0391 30.5391 78.7188 27.2461 80.0781 24.3633C81.4375 21.4805 83.3828 19.2422 85.9141 17.6484C88.4688 16.0547 91.4805 15.2578 94.9492 15.2578C99.2148 15.2578 102.754 16.5352 105.566 19.0898C108.402 21.6445 109.914 24.9609 110.102 29.0391H103.949C103.762 26.5781 102.824 24.5625 101.137 22.9922C99.4727 21.3984 97.4102 20.6016 94.9492 20.6016C91.6445 20.6016 89.0781 21.7969 87.25 24.1875C85.4453 26.5547 84.543 29.9883 84.543 34.4883V35.7188C84.543 40.1016 85.4453 43.4766 87.25 45.8438C89.0547 48.2109 91.6328 49.3945 94.9844 49.3945ZM140.898 54C140.523 53.25 140.219 51.9141 139.984 49.9922C136.961 53.1328 133.352 54.7031 129.156 54.7031C125.406 54.7031 122.324 53.6484 119.91 51.5391C117.52 49.4062 116.324 46.7109 116.324 43.4531C116.324 39.4922 117.824 36.4219 120.824 34.2422C123.848 32.0391 128.09 30.9375 133.551 30.9375H139.879V27.9492C139.879 25.6758 139.199 23.8711 137.84 22.5352C136.48 21.1758 134.477 20.4961 131.828 20.4961C129.508 20.4961 127.562 21.082 125.992 22.2539C124.422 23.4258 123.637 24.8438 123.637 26.5078H117.098C117.098 24.6094 117.766 22.7812 119.102 21.0234C120.461 19.2422 122.289 17.8359 124.586 16.8047C126.906 15.7734 129.449 15.2578 132.215 15.2578C136.598 15.2578 140.031 16.3594 142.516 18.5625C145 20.7422 146.289 23.7539 146.383 27.5977V45.1055C146.383 48.5977 146.828 51.375 147.719 53.4375V54H140.898ZM130.105 49.043C132.145 49.043 134.078 48.5156 135.906 47.4609C137.734 46.4062 139.059 45.0352 139.879 43.3477V35.543H134.781C126.812 35.543 122.828 37.875 122.828 42.5391C122.828 44.5781 123.508 46.1719 124.867 47.3203C126.227 48.4688 127.973 49.043 130.105 49.043ZM163.645 54H157.141V0H163.645V54ZM208.047 31.1836C202.258 29.5195 198.039 27.4805 195.391 25.0664C192.766 22.6289 191.453 19.6289 191.453 16.0664C191.453 12.0352 193.059 8.70703 196.27 6.08203C199.504 3.43359 203.699 2.10938 208.855 2.10938C212.371 2.10938 215.5 2.78906 218.242 4.14844C221.008 5.50781 223.141 7.38281 224.641 9.77344C226.164 12.1641 226.926 14.7773 226.926 17.6133H220.141C220.141 14.5195 219.156 12.0938 217.188 10.3359C215.219 8.55469 212.441 7.66406 208.855 7.66406C205.527 7.66406 202.926 8.40234 201.051 9.87891C199.199 11.332 198.273 13.3594 198.273 15.9609C198.273 18.0469 199.152 19.8164 200.91 21.2695C202.691 22.6992 205.703 24.0117 209.945 25.207C214.211 26.4023 217.539 27.7266 219.93 29.1797C222.344 30.6094 224.125 32.2852 225.273 34.207C226.445 36.1289 227.031 38.3906 227.031 40.9922C227.031 45.1406 225.414 48.4688 222.18 50.9766C218.945 53.4609 214.621 54.7031 209.207 54.7031C205.691 54.7031 202.41 54.0352 199.363 52.6992C196.316 51.3398 193.961 49.4883 192.297 47.1445C190.656 44.8008 189.836 42.1406 189.836 39.1641H196.621C196.621 42.2578 197.758 44.707 200.031 46.5117C202.328 48.293 205.387 49.1836 209.207 49.1836C212.77 49.1836 215.5 48.457 217.398 47.0039C219.297 45.5508 220.246 43.5703 220.246 41.0625C220.246 38.5547 219.367 36.6211 217.609 35.2617C215.852 33.8789 212.664 32.5195 208.047 31.1836ZM243.52 6.75V15.9609H250.621V20.9883H243.52V44.5781C243.52 46.1016 243.836 47.25 244.469 48.0234C245.102 48.7734 246.18 49.1484 247.703 49.1484C248.453 49.1484 249.484 49.0078 250.797 48.7266V54C249.086 54.4688 247.422 54.7031 245.805 54.7031C242.898 54.7031 240.707 53.8242 239.23 52.0664C237.754 50.3086 237.016 47.8125 237.016 44.5781V20.9883H230.09V15.9609H237.016V6.75H243.52ZM255.824 34.6289C255.824 30.9023 256.551 27.5508 258.004 24.5742C259.48 21.5977 261.52 19.3008 264.121 17.6836C266.746 16.0664 269.734 15.2578 273.086 15.2578C278.266 15.2578 282.449 17.0508 285.637 20.6367C288.848 24.2227 290.453 28.9922 290.453 34.9453V35.4023C290.453 39.1055 289.738 42.4336 288.309 45.3867C286.902 48.3164 284.875 50.6016 282.227 52.2422C279.602 53.8828 276.578 54.7031 273.156 54.7031C268 54.7031 263.816 52.9102 260.605 49.3242C257.418 45.7383 255.824 40.9922 255.824 35.0859V34.6289ZM262.363 35.4023C262.363 39.6211 263.336 43.0078 265.281 45.5625C267.25 48.1172 269.875 49.3945 273.156 49.3945C276.461 49.3945 279.086 48.1055 281.031 45.5273C282.977 42.9258 283.949 39.293 283.949 34.6289C283.949 30.457 282.953 27.082 280.961 24.5039C278.992 21.9023 276.367 20.6016 273.086 20.6016C269.875 20.6016 267.285 21.8789 265.316 24.4336C263.348 26.9883 262.363 30.6445 262.363 35.4023ZM316.996 21.7969C316.012 21.6328 314.945 21.5508 313.797 21.5508C309.531 21.5508 306.637 23.3672 305.113 27V54H298.609V15.9609H304.938L305.043 20.3555C307.176 16.957 310.199 15.2578 314.113 15.2578C315.379 15.2578 316.34 15.4219 316.996 15.75V21.7969ZM345.086 54C344.711 53.25 344.406 51.9141 344.172 49.9922C341.148 53.1328 337.539 54.7031 333.344 54.7031C329.594 54.7031 326.512 53.6484 324.098 51.5391C321.707 49.4062 320.512 46.7109 320.512 43.4531C320.512 39.4922 322.012 36.4219 325.012 34.2422C328.035 32.0391 332.277 30.9375 337.738 30.9375H344.066V27.9492C344.066 25.6758 343.387 23.8711 342.027 22.5352C340.668 21.1758 338.664 20.4961 336.016 20.4961C333.695 20.4961 331.75 21.082 330.18 22.2539C328.609 23.4258 327.824 24.8438 327.824 26.5078H321.285C321.285 24.6094 321.953 22.7812 323.289 21.0234C324.648 19.2422 326.477 17.8359 328.773 16.8047C331.094 15.7734 333.637 15.2578 336.402 15.2578C340.785 15.2578 344.219 16.3594 346.703 18.5625C349.188 20.7422 350.477 23.7539 350.57 27.5977V45.1055C350.57 48.5977 351.016 51.375 351.906 53.4375V54H345.086ZM334.293 49.043C336.332 49.043 338.266 48.5156 340.094 47.4609C341.922 46.4062 343.246 45.0352 344.066 43.3477V35.543H338.969C331 35.543 327.016 37.875 327.016 42.5391C327.016 44.5781 327.695 46.1719 329.055 47.3203C330.414 48.4688 332.16 49.043 334.293 49.043ZM359.219 34.6641C359.219 28.7344 360.59 24.0234 363.332 20.5312C366.074 17.0156 369.707 15.2578 374.23 15.2578C378.871 15.2578 382.492 16.8984 385.094 20.1797L385.41 15.9609H391.352V53.0859C391.352 58.0078 389.887 61.8867 386.957 64.7227C384.051 67.5586 380.137 68.9766 375.215 68.9766C372.473 68.9766 369.789 68.3906 367.164 67.2188C364.539 66.0469 362.535 64.4414 361.152 62.4023L364.527 58.5C367.316 61.9453 370.727 63.668 374.758 63.668C377.922 63.668 380.383 62.7773 382.141 60.9961C383.922 59.2148 384.812 56.707 384.812 53.4727V50.2031C382.211 53.2031 378.66 54.7031 374.16 54.7031C369.707 54.7031 366.098 52.9102 363.332 49.3242C360.59 45.7383 359.219 40.8516 359.219 34.6641ZM365.758 35.4023C365.758 39.6914 366.637 43.0664 368.395 45.5273C370.152 47.9648 372.613 49.1836 375.777 49.1836C379.879 49.1836 382.891 47.3203 384.812 43.5938V26.2266C382.82 22.5938 379.832 20.7773 375.848 20.7773C372.684 20.7773 370.211 22.0078 368.43 24.4688C366.648 26.9297 365.758 30.5742 365.758 35.4023ZM416.98 54.7031C411.824 54.7031 407.629 53.0156 404.395 49.6406C401.16 46.2422 399.543 41.707 399.543 36.0352V34.8398C399.543 31.0664 400.258 27.7031 401.688 24.75C403.141 21.7734 405.156 19.4531 407.734 17.7891C410.336 16.1016 413.148 15.2578 416.172 15.2578C421.117 15.2578 424.961 16.8867 427.703 20.1445C430.445 23.4023 431.816 28.0664 431.816 34.1367V36.8438H406.047C406.141 40.5938 407.23 43.6289 409.316 45.9492C411.426 48.2461 414.098 49.3945 417.332 49.3945C419.629 49.3945 421.574 48.9258 423.168 47.9883C424.762 47.0508 426.156 45.8086 427.352 44.2617L431.324 47.3555C428.137 52.2539 423.355 54.7031 416.98 54.7031ZM416.172 20.6016C413.547 20.6016 411.344 21.5625 409.562 23.4844C407.781 25.3828 406.68 28.0547 406.258 31.5H425.312V31.0078C425.125 27.7031 424.234 25.1484 422.641 23.3438C421.047 21.5156 418.891 20.6016 416.172 20.6016ZM487.188 30.3398H465.004V48.4805H490.773V54H458.254V2.8125H490.422V8.36719H465.004V24.8203H487.188V30.3398ZM495.871 34.6641C495.871 28.8281 497.254 24.1406 500.02 20.6016C502.785 17.0391 506.406 15.2578 510.883 15.2578C515.336 15.2578 518.863 16.7812 521.465 19.8281V0H527.969V54H521.992L521.676 49.9219C519.074 53.1094 515.453 54.7031 510.812 54.7031C506.406 54.7031 502.809 52.8984 500.02 49.2891C497.254 45.6797 495.871 40.9688 495.871 35.1562V34.6641ZM502.375 35.4023C502.375 39.7148 503.266 43.0898 505.047 45.5273C506.828 47.9648 509.289 49.1836 512.43 49.1836C516.555 49.1836 519.566 47.332 521.465 43.6289V26.1562C519.52 22.5703 516.531 20.7773 512.5 20.7773C509.312 20.7773 506.828 22.0078 505.047 24.4688C503.266 26.9297 502.375 30.5742 502.375 35.4023ZM545.16 54H538.656V15.9609H545.16V54ZM538.129 5.87109C538.129 4.81641 538.445 3.92578 539.078 3.19922C539.734 2.47266 540.695 2.10938 541.961 2.10938C543.227 2.10938 544.188 2.47266 544.844 3.19922C545.5 3.92578 545.828 4.81641 545.828 5.87109C545.828 6.92578 545.5 7.80469 544.844 8.50781C544.188 9.21094 543.227 9.5625 541.961 9.5625C540.695 9.5625 539.734 9.21094 539.078 8.50781C538.445 7.80469 538.129 6.92578 538.129 5.87109ZM564.426 6.75V15.9609H571.527V20.9883H564.426V44.5781C564.426 46.1016 564.742 47.25 565.375 48.0234C566.008 48.7734 567.086 49.1484 568.609 49.1484C569.359 49.1484 570.391 49.0078 571.703 48.7266V54C569.992 54.4688 568.328 54.7031 566.711 54.7031C563.805 54.7031 561.613 53.8242 560.137 52.0664C558.66 50.3086 557.922 47.8125 557.922 44.5781V20.9883H550.996V15.9609H557.922V6.75H564.426ZM576.73 34.6289C576.73 30.9023 577.457 27.5508 578.91 24.5742C580.387 21.5977 582.426 19.3008 585.027 17.6836C587.652 16.0664 590.641 15.2578 593.992 15.2578C599.172 15.2578 603.355 17.0508 606.543 20.6367C609.754 24.2227 611.359 28.9922 611.359 34.9453V35.4023C611.359 39.1055 610.645 42.4336 609.215 45.3867C607.809 48.3164 605.781 50.6016 603.133 52.2422C600.508 53.8828 597.484 54.7031 594.062 54.7031C588.906 54.7031 584.723 52.9102 581.512 49.3242C578.324 45.7383 576.73 40.9922 576.73 35.0859V34.6289ZM583.27 35.4023C583.27 39.6211 584.242 43.0078 586.188 45.5625C588.156 48.1172 590.781 49.3945 594.062 49.3945C597.367 49.3945 599.992 48.1055 601.938 45.5273C603.883 42.9258 604.855 39.293 604.855 34.6289C604.855 30.457 603.859 27.082 601.867 24.5039C599.898 21.9023 597.273 20.6016 593.992 20.6016C590.781 20.6016 588.191 21.8789 586.223 24.4336C584.254 26.9883 583.27 30.6445 583.27 35.4023ZM637.902 21.7969C636.918 21.6328 635.852 21.5508 634.703 21.5508C630.438 21.5508 627.543 23.3672 626.02 27V54H619.516V15.9609H625.844L625.949 20.3555C628.082 16.957 631.105 15.2578 635.02 15.2578C636.285 15.2578 637.246 15.4219 637.902 15.75V21.7969Z" fill="black"/>
<path d="M7.72656 48.4805H31.9844V54H0.941406V2.8125H7.72656V48.4805ZM36.9414 34.6289C36.9414 30.9023 37.668 27.5508 39.1211 24.5742C40.5977 21.5977 42.6367 19.3008 45.2383 17.6836C47.8633 16.0664 50.8516 15.2578 54.2031 15.2578C59.3828 15.2578 63.5664 17.0508 66.7539 20.6367C69.9648 24.2227 71.5703 28.9922 71.5703 34.9453V35.4023C71.5703 39.1055 70.8555 42.4336 69.4258 45.3867C68.0195 48.3164 65.9922 50.6016 63.3438 52.2422C60.7188 53.8828 57.6953 54.7031 54.2734 54.7031C49.1172 54.7031 44.9336 52.9102 41.7227 49.3242C38.5352 45.7383 36.9414 40.9922 36.9414 35.0859V34.6289ZM43.4805 35.4023C43.4805 39.6211 44.4531 43.0078 46.3984 45.5625C48.3672 48.1172 50.9922 49.3945 54.2734 49.3945C57.5781 49.3945 60.2031 48.1055 62.1484 45.5273C64.0938 42.9258 65.0664 39.293 65.0664 34.6289C65.0664 30.457 64.0703 27.082 62.0781 24.5039C60.1094 21.9023 57.4844 20.6016 54.2031 20.6016C50.9922 20.6016 48.4023 21.8789 46.4336 24.4336C44.4648 26.9883 43.4805 30.6445 43.4805 35.4023ZM94.9844 49.3945C97.3047 49.3945 99.332 48.6914 101.066 47.2852C102.801 45.8789 103.762 44.1211 103.949 42.0117H110.102C109.984 44.1914 109.234 46.2656 107.852 48.2344C106.469 50.2031 104.617 51.7734 102.297 52.9453C100 54.1172 97.5625 54.7031 94.9844 54.7031C89.8047 54.7031 85.6797 52.9805 82.6094 49.5352C79.5625 46.0664 78.0391 41.332 78.0391 35.332V34.2422C78.0391 30.5391 78.7188 27.2461 80.0781 24.3633C81.4375 21.4805 83.3828 19.2422 85.9141 17.6484C88.4688 16.0547 91.4805 15.2578 94.9492 15.2578C99.2148 15.2578 102.754 16.5352 105.566 19.0898C108.402 21.6445 109.914 24.9609 110.102 29.0391H103.949C103.762 26.5781 102.824 24.5625 101.137 22.9922C99.4727 21.3984 97.4102 20.6016 94.9492 20.6016C91.6445 20.6016 89.0781 21.7969 87.25 24.1875C85.4453 26.5547 84.543 29.9883 84.543 34.4883V35.7188C84.543 40.1016 85.4453 43.4766 87.25 45.8438C89.0547 48.2109 91.6328 49.3945 94.9844 49.3945ZM140.898 54C140.523 53.25 140.219 51.9141 139.984 49.9922C136.961 53.1328 133.352 54.7031 129.156 54.7031C125.406 54.7031 122.324 53.6484 119.91 51.5391C117.52 49.4062 116.324 46.7109 116.324 43.4531C116.324 39.4922 117.824 36.4219 120.824 34.2422C123.848 32.0391 128.09 30.9375 133.551 30.9375H139.879V27.9492C139.879 25.6758 139.199 23.8711 137.84 22.5352C136.48 21.1758 134.477 20.4961 131.828 20.4961C129.508 20.4961 127.562 21.082 125.992 22.2539C124.422 23.4258 123.637 24.8438 123.637 26.5078H117.098C117.098 24.6094 117.766 22.7812 119.102 21.0234C120.461 19.2422 122.289 17.8359 124.586 16.8047C126.906 15.7734 129.449 15.2578 132.215 15.2578C136.598 15.2578 140.031 16.3594 142.516 18.5625C145 20.7422 146.289 23.7539 146.383 27.5977V45.1055C146.383 48.5977 146.828 51.375 147.719 53.4375V54H140.898ZM130.105 49.043C132.145 49.043 134.078 48.5156 135.906 47.4609C137.734 46.4062 139.059 45.0352 139.879 43.3477V35.543H134.781C126.812 35.543 122.828 37.875 122.828 42.5391C122.828 44.5781 123.508 46.1719 124.867 47.3203C126.227 48.4688 127.973 49.043 130.105 49.043ZM163.645 54H157.141V0H163.645V54ZM208.047 31.1836C202.258 29.5195 198.039 27.4805 195.391 25.0664C192.766 22.6289 191.453 19.6289 191.453 16.0664C191.453 12.0352 193.059 8.70703 196.27 6.08203C199.504 3.43359 203.699 2.10938 208.855 2.10938C212.371 2.10938 215.5 2.78906 218.242 4.14844C221.008 5.50781 223.141 7.38281 224.641 9.77344C226.164 12.1641 226.926 14.7773 226.926 17.6133H220.141C220.141 14.5195 219.156 12.0938 217.188 10.3359C215.219 8.55469 212.441 7.66406 208.855 7.66406C205.527 7.66406 202.926 8.40234 201.051 9.87891C199.199 11.332 198.273 13.3594 198.273 15.9609C198.273 18.0469 199.152 19.8164 200.91 21.2695C202.691 22.6992 205.703 24.0117 209.945 25.207C214.211 26.4023 217.539 27.7266 219.93 29.1797C222.344 30.6094 224.125 32.2852 225.273 34.207C226.445 36.1289 227.031 38.3906 227.031 40.9922C227.031 45.1406 225.414 48.4688 222.18 50.9766C218.945 53.4609 214.621 54.7031 209.207 54.7031C205.691 54.7031 202.41 54.0352 199.363 52.6992C196.316 51.3398 193.961 49.4883 192.297 47.1445C190.656 44.8008 189.836 42.1406 189.836 39.1641H196.621C196.621 42.2578 197.758 44.707 200.031 46.5117C202.328 48.293 205.387 49.1836 209.207 49.1836C212.77 49.1836 215.5 48.457 217.398 47.0039C219.297 45.5508 220.246 43.5703 220.246 41.0625C220.246 38.5547 219.367 36.6211 217.609 35.2617C215.852 33.8789 212.664 32.5195 208.047 31.1836ZM243.52 6.75V15.9609H250.621V20.9883H243.52V44.5781C243.52 46.1016 243.836 47.25 244.469 48.0234C245.102 48.7734 246.18 49.1484 247.703 49.1484C248.453 49.1484 249.484 49.0078 250.797 48.7266V54C249.086 54.4688 247.422 54.7031 245.805 54.7031C242.898 54.7031 240.707 53.8242 239.23 52.0664C237.754 50.3086 237.016 47.8125 237.016 44.5781V20.9883H230.09V15.9609H237.016V6.75H243.52ZM255.824 34.6289C255.824 30.9023 256.551 27.5508 258.004 24.5742C259.48 21.5977 261.52 19.3008 264.121 17.6836C266.746 16.0664 269.734 15.2578 273.086 15.2578C278.266 15.2578 282.449 17.0508 285.637 20.6367C288.848 24.2227 290.453 28.9922 290.453 34.9453V35.4023C290.453 39.1055 289.738 42.4336 288.309 45.3867C286.902 48.3164 284.875 50.6016 282.227 52.2422C279.602 53.8828 276.578 54.7031 273.156 54.7031C268 54.7031 263.816 52.9102 260.605 49.3242C257.418 45.7383 255.824 40.9922 255.824 35.0859V34.6289ZM262.363 35.4023C262.363 39.6211 263.336 43.0078 265.281 45.5625C267.25 48.1172 269.875 49.3945 273.156 49.3945C276.461 49.3945 279.086 48.1055 281.031 45.5273C282.977 42.9258 283.949 39.293 283.949 34.6289C283.949 30.457 282.953 27.082 280.961 24.5039C278.992 21.9023 276.367 20.6016 273.086 20.6016C269.875 20.6016 267.285 21.8789 265.316 24.4336C263.348 26.9883 262.363 30.6445 262.363 35.4023ZM316.996 21.7969C316.012 21.6328 314.945 21.5508 313.797 21.5508C309.531 21.5508 306.637 23.3672 305.113 27V54H298.609V15.9609H304.938L305.043 20.3555C307.176 16.957 310.199 15.2578 314.113 15.2578C315.379 15.2578 316.34 15.4219 316.996 15.75V21.7969ZM345.086 54C344.711 53.25 344.406 51.9141 344.172 49.9922C341.148 53.1328 337.539 54.7031 333.344 54.7031C329.594 54.7031 326.512 53.6484 324.098 51.5391C321.707 49.4062 320.512 46.7109 320.512 43.4531C320.512 39.4922 322.012 36.4219 325.012 34.2422C328.035 32.0391 332.277 30.9375 337.738 30.9375H344.066V27.9492C344.066 25.6758 343.387 23.8711 342.027 22.5352C340.668 21.1758 338.664 20.4961 336.016 20.4961C333.695 20.4961 331.75 21.082 330.18 22.2539C328.609 23.4258 327.824 24.8438 327.824 26.5078H321.285C321.285 24.6094 321.953 22.7812 323.289 21.0234C324.648 19.2422 326.477 17.8359 328.773 16.8047C331.094 15.7734 333.637 15.2578 336.402 15.2578C340.785 15.2578 344.219 16.3594 346.703 18.5625C349.188 20.7422 350.477 23.7539 350.57 27.5977V45.1055C350.57 48.5977 351.016 51.375 351.906 53.4375V54H345.086ZM334.293 49.043C336.332 49.043 338.266 48.5156 340.094 47.4609C341.922 46.4062 343.246 45.0352 344.066 43.3477V35.543H338.969C331 35.543 327.016 37.875 327.016 42.5391C327.016 44.5781 327.695 46.1719 329.055 47.3203C330.414 48.4688 332.16 49.043 334.293 49.043ZM359.219 34.6641C359.219 28.7344 360.59 24.0234 363.332 20.5312C366.074 17.0156 369.707 15.2578 374.23 15.2578C378.871 15.2578 382.492 16.8984 385.094 20.1797L385.41 15.9609H391.352V53.0859C391.352 58.0078 389.887 61.8867 386.957 64.7227C384.051 67.5586 380.137 68.9766 375.215 68.9766C372.473 68.9766 369.789 68.3906 367.164 67.2188C364.539 66.0469 362.535 64.4414 361.152 62.4023L364.527 58.5C367.316 61.9453 370.727 63.668 374.758 63.668C377.922 63.668 380.383 62.7773 382.141 60.9961C383.922 59.2148 384.812 56.707 384.812 53.4727V50.2031C382.211 53.2031 378.66 54.7031 374.16 54.7031C369.707 54.7031 366.098 52.9102 363.332 49.3242C360.59 45.7383 359.219 40.8516 359.219 34.6641ZM365.758 35.4023C365.758 39.6914 366.637 43.0664 368.395 45.5273C370.152 47.9648 372.613 49.1836 375.777 49.1836C379.879 49.1836 382.891 47.3203 384.812 43.5938V26.2266C382.82 22.5938 379.832 20.7773 375.848 20.7773C372.684 20.7773 370.211 22.0078 368.43 24.4688C366.648 26.9297 365.758 30.5742 365.758 35.4023ZM416.98 54.7031C411.824 54.7031 407.629 53.0156 404.395 49.6406C401.16 46.2422 399.543 41.707 399.543 36.0352V34.8398C399.543 31.0664 400.258 27.7031 401.688 24.75C403.141 21.7734 405.156 19.4531 407.734 17.7891C410.336 16.1016 413.148 15.2578 416.172 15.2578C421.117 15.2578 424.961 16.8867 427.703 20.1445C430.445 23.4023 431.816 28.0664 431.816 34.1367V36.8438H406.047C406.141 40.5938 407.23 43.6289 409.316 45.9492C411.426 48.2461 414.098 49.3945 417.332 49.3945C419.629 49.3945 421.574 48.9258 423.168 47.9883C424.762 47.0508 426.156 45.8086 427.352 44.2617L431.324 47.3555C428.137 52.2539 423.355 54.7031 416.98 54.7031ZM416.172 20.6016C413.547 20.6016 411.344 21.5625 409.562 23.4844C407.781 25.3828 406.68 28.0547 406.258 31.5H425.312V31.0078C425.125 27.7031 424.234 25.1484 422.641 23.3438C421.047 21.5156 418.891 20.6016 416.172 20.6016ZM487.188 30.3398H465.004V48.4805H490.773V54H458.254V2.8125H490.422V8.36719H465.004V24.8203H487.188V30.3398ZM495.871 34.6641C495.871 28.8281 497.254 24.1406 500.02 20.6016C502.785 17.0391 506.406 15.2578 510.883 15.2578C515.336 15.2578 518.863 16.7812 521.465 19.8281V0H527.969V54H521.992L521.676 49.9219C519.074 53.1094 515.453 54.7031 510.812 54.7031C506.406 54.7031 502.809 52.8984 500.02 49.2891C497.254 45.6797 495.871 40.9688 495.871 35.1562V34.6641ZM502.375 35.4023C502.375 39.7148 503.266 43.0898 505.047 45.5273C506.828 47.9648 509.289 49.1836 512.43 49.1836C516.555 49.1836 519.566 47.332 521.465 43.6289V26.1562C519.52 22.5703 516.531 20.7773 512.5 20.7773C509.312 20.7773 506.828 22.0078 505.047 24.4688C503.266 26.9297 502.375 30.5742 502.375 35.4023ZM545.16 54H538.656V15.9609H545.16V54ZM538.129 5.87109C538.129 4.81641 538.445 3.92578 539.078 3.19922C539.734 2.47266 540.695 2.10938 541.961 2.10938C543.227 2.10938 544.188 2.47266 544.844 3.19922C545.5 3.92578 545.828 4.81641 545.828 5.87109C545.828 6.92578 545.5 7.80469 544.844 8.50781C544.188 9.21094 543.227 9.5625 541.961 9.5625C540.695 9.5625 539.734 9.21094 539.078 8.50781C538.445 7.80469 538.129 6.92578 538.129 5.87109ZM564.426 6.75V15.9609H571.527V20.9883H564.426V44.5781C564.426 46.1016 564.742 47.25 565.375 48.0234C566.008 48.7734 567.086 49.1484 568.609 49.1484C569.359 49.1484 570.391 49.0078 571.703 48.7266V54C569.992 54.4688 568.328 54.7031 566.711 54.7031C563.805 54.7031 561.613 53.8242 560.137 52.0664C558.66 50.3086 557.922 47.8125 557.922 44.5781V20.9883H550.996V15.9609H557.922V6.75H564.426ZM576.73 34.6289C576.73 30.9023 577.457 27.5508 578.91 24.5742C580.387 21.5977 582.426 19.3008 585.027 17.6836C587.652 16.0664 590.641 15.2578 593.992 15.2578C599.172 15.2578 603.355 17.0508 606.543 20.6367C609.754 24.2227 611.359 28.9922 611.359 34.9453V35.4023C611.359 39.1055 610.645 42.4336 609.215 45.3867C607.809 48.3164 605.781 50.6016 603.133 52.2422C600.508 53.8828 597.484 54.7031 594.062 54.7031C588.906 54.7031 584.723 52.9102 581.512 49.3242C578.324 45.7383 576.73 40.9922 576.73 35.0859V34.6289ZM583.27 35.4023C583.27 39.6211 584.242 43.0078 586.188 45.5625C588.156 48.1172 590.781 49.3945 594.062 49.3945C597.367 49.3945 599.992 48.1055 601.938 45.5273C603.883 42.9258 604.855 39.293 604.855 34.6289C604.855 30.457 603.859 27.082 601.867 24.5039C599.898 21.9023 597.273 20.6016 593.992 20.6016C590.781 20.6016 588.191 21.8789 586.223 24.4336C584.254 26.9883 583.27 30.6445 583.27 35.4023ZM637.902 21.7969C636.918 21.6328 635.852 21.5508 634.703 21.5508C630.438 21.5508 627.543 23.3672 626.02 27V54H619.516V15.9609H625.844L625.949 20.3555C628.082 16.957 631.105 15.2578 635.02 15.2578C636.285 15.2578 637.246 15.4219 637.902 15.75V21.7969Z" fill="url(#paint0_linear)"/>
<defs>
<linearGradient id="paint0_linear" x1="409" y1="85" x2="408" y2="-19" gradientUnits="userSpaceOnUse">
<stop offset="0.227273" stop-color="#A44A44"/>
<stop offset="0.651042" stop-color="#AEC134" stop-opacity="0.68"/>
</linearGradient>
</defs>
</svg>
